<svg id="Layer_1" data-name="Layer 1" xmlns="http://www.w3.org/2000/svg" viewBox="0 0 321.81 359.92"><defs><style>.cls-1{fill:#fff;}.cls-2{fill:#b52e2e;}.cls-3{fill:#e23131;}</style></defs><title>angular</title><polygon class="cls-1" points="271.07 280.13 38.58 281.63 113.41 35.58 200.16 29.23 271.07 280.13"/><g id="oGLCTb.tif"><path class="cls-2" d="M205.29,20.88c6.4,1.18,12.29,4,18.35,6.13Q294,52.23,364.19,77.7a11,11,0,0,1,3.57,1.6c1.29,1.14-.44,2.41-0.35,3.66,0.52,7.17-1.31,14.13-2.13,21.15s-1.19,14-2.68,21c-0.68,3.16-.56,6.52-1,9.81-1.16,7.95-2,16-2.93,23.93-0.76,6.86-1.61,13.72-2.25,20.6s-1.92,14-2.78,21c-0.42,3.45-.52,6.91-1,10.38-1.35,9.43-1.85,19-3.25,28.41-1.43,9.61-2.32,19.29-3.64,28.91-0.93,6.81-1.87,13.69-2.34,20.59-0.23,3.42-1,6.82-1,10.3,0,2.56-2.25,3.53-4.07,4.62q-11.78,7-23.63,13.9-51.85,30.33-103.72,60.63c-1.81,1.06-3.47,2.56-5.75,2.66,0.05-2,.15-4,0.15-6q0-66.57,0-133.15,20.72-.12,41.45-0.24c5.35,0,5.34,0,7.41,5.11,6.06,14.9,12.18,29.78,18.14,44.72,1,2.53,2.25,3.53,5.09,3.45,8.16-.22,16.32-0.05,24.48-0.09,2.06,0,4.17.31,6.55-.39-5.94-13.53-11.73-26.73-17.54-39.92Q256,175.06,221,95.84C215.84,84.19,211.13,72.33,205.3,61Q205.29,40.93,205.29,20.88Z" transform="translate(-46.43 -20.87)"/><path class="cls-3" d="M205.3,241.68q0,66.57,0,133.15c0,2-.1,4-0.15,6-7.86-3.59-15-8.38-22.47-12.71-34.62-20.18-69.12-40.56-103.84-60.55-5.77-3.32-9.09-6.85-9.52-13.93-0.82-13.44-2.7-26.81-4.16-40.2q-2.82-25.79-5.69-51.58-2.15-19.59-4.27-39.19c-1.58-14.38-3.21-28.76-4.77-43.15C49.09,107.24,48,95,46.47,82.76c-0.38-3.1,1.71-3.21,3.42-3.86Q72,70.5,94.2,62.22q53-19.9,105.91-39.8c1.68-.63,3.27-1.64,5.18-1.54q0,20.05,0,40.1a6.18,6.18,0,0,0-.86,1.17Q184.08,110,163.76,157.9q-27.93,65.74-55.85,131.49c-0.66,1.56-2.07,3-1.35,5.15,10.72,0.42,21.34-.64,32-0.62,4.67,0,4.71-.1,6.34-4.43q8.36-22.11,16.69-44.23c0.75-2,1.23-3.94,4.27-3.89C179,241.61,192.15,241.6,205.3,241.68Z" transform="translate(-46.43 -20.87)"/><path class="cls-2" d="M205.31,137.81c1.56,0.64,1.69,2.23,2.27,3.49q15.13,32.92,30.22,65.86c0.27,0.58.44,1.21,0.87,2.41H205.31Q205.31,173.7,205.31,137.81Z" transform="translate(-46.43 -20.87)"/><path class="cls-3" d="M205.31,137.81q0,35.88,0,71.76H176.46c2.49-6.36,4.88-12.49,7.29-18.6,6.61-16.81,13.2-33.63,19.89-50.41C204,139.63,203.79,138.13,205.31,137.81Z" transform="translate(-46.43 -20.87)"/></g></svg>