<svg id="Layer_1" data-name="Layer 1" xmlns="http://www.w3.org/2000/svg" viewBox="0 0 400 400"><defs><style>.cls-1{fill:#fff;}.cls-2{fill:#f99e37;}.cls-3{fill:#f9a032;}.cls-4{fill:#f99d3b;}.cls-5{fill:#f36f53;}.cls-6{fill:#f37151;}.cls-7{fill:#c65a4d;}.cls-8{fill:#f89c3e;}.cls-9{fill:#ca5d4c;}.cls-10{fill:#cb5f4c;}.cls-11{fill:#bb4e50;}.cls-12{fill:#c1554f;}.cls-13{fill:#c4574e;}.cls-14{fill:#c0544f;}.cls-15{fill:#c5584e;}.cls-16{fill:#be5150;}.cls-17{fill:#f47b61;}.cls-18{fill:#fbbeaa;}.cls-19{fill:#e1a997;}.cls-20{fill:#f6977d;}.cls-21{fill:#d6836f;}.cls-22{fill:#f58545;}.cls-23{fill:#f89a35;}.cls-24{fill:#f58146;}.cls-25{fill:#f68943;}.cls-26{fill:#e17645;}.cls-27{fill:#f9a12e;}.cls-28{fill:#f99f30;}.cls-29{fill:#f37450;}.cls-30{fill:#f68d3f;}.cls-31{fill:#f47d48;}.cls-32{fill:#f89c3c;}.cls-33{fill:#dd7346;}.cls-34{fill:#d0644b;}.cls-35{fill:#f47a4b;}.cls-36{fill:#f3764e;}.cls-37{fill:#f78e3e;}.cls-38{fill:#dc7147;}.cls-39{fill:#e47a44;}.cls-40{fill:#d56a49;}.cls-41{fill:#f99d39;}.cls-42{fill:#f7913c;}.cls-43{fill:#e87d42;}.cls-44{fill:#d76d48;}.cls-45{fill:#f89638;}.cls-46{fill:#f79439;}.cls-47{fill:#cc614a;}.cls-48{fill:#f89837;}.cls-49{fill:#f4784d;}.cls-50{fill:#db7047;}.cls-51{fill:#e67c44;}.cls-52{fill:#ea8042;}.cls-53{fill:#ed8341;}.cls-54{fill:#f78f3d;}.cls-55{fill:#f68b40;}.cls-56{fill:#f7913b;}.cls-57{fill:#f08641;}.cls-58{fill:#f38941;}.cls-59{fill:#f68b41;}.cls-60{fill:#f68a43;}.cls-61{fill:#f99d33;}</style></defs><title>d3</title><rect class="cls-1" width="400" height="400"/><g id="CyH1Wn.tif"><path class="cls-2" d="M190.33,282.86a69.22,69.22,0,0,1-5.42,7,148.27,148.27,0,0,1-18.64,18.71c-1.32,1.1-2.7,2.12-4.06,3.17a2.35,2.35,0,0,0-1.59-.28c-2.79.08-5.58,0-8.39,0.24-4.78.36-9.59-.08-14.4,0.31-4.53.37-9.09-.08-13.65,0.3s-9.29-.08-13.95.3-9.39-.09-14.1.3-9.29-.07-13.95.3-9.39-.08-14.1.3-9.39-.08-14.1.29-9.5-.22-14.24.36V285.86a14,14,0,0,0,1.91-.32c5.56,0,11.11.07,16.67-.27,3.74-.23,7.49,0,11.25-0.25,4.88-.37,9.8.05,14.71-0.33,4.43-.34,8.89.08,13.35-0.28,4.83-.39,9.7.08,14.56-0.31,4.48-.37,9,0,13.5-0.27,5.34-.32,10.71,0,16.06-0.35,3.94-.25,7.89,0,11.85-0.25,5-.37,10.1,0,15.16-0.32,3.5-.25,7,0,10.53,0a8.33,8.33,0,0,0,1.2,0A34.59,34.59,0,0,1,190.33,282.86Z"/><path class="cls-3" d="M190.33,282.86a34.59,34.59,0,0,0-9.84,0,8.33,8.33,0,0,1-1.2,0c-3.51,0-7-.2-10.53,0-5.06.36-10.12-.05-15.16,0.32-4,.29-7.91,0-11.85.25-5.35.34-10.72,0-16.06,0.35-4.51.27-9-.09-13.5,0.27-4.86.4-9.73-.07-14.56,0.31-4.46.36-8.92-.06-13.35,0.28-4.91.38-9.82,0-14.71,0.33-3.76.29-7.51,0-11.25,0.25-5.55.34-11.11,0.28-16.67,0.27a14,14,0,0,1-1.91.32v-8.43c3.51,0,7,0,10.53,0,6.47,0,12.94.1,19.41,0A83.81,83.81,0,0,0,104,269.14c3.49-1.65,6.8-3.63,10.1-5.6,0.35,0.55.9,0.31,1.37,0.34,3,0.17,6.08-.18,9.12-0.3,3.94-.15,7.88.09,11.83-0.24,4.77-.39,9.59-0.2,14.38-0.27,8.55-.13,17.1-0.56,25.65-0.44a9.81,9.81,0,0,0,3.9-.55l1.51,1.2a1.86,1.86,0,0,0,.9.9,3.88,3.88,0,0,0,1,1.12l10,10a4.15,4.15,0,0,1,1.07,1.23A58.81,58.81,0,0,1,190.33,282.86Z"/><path class="cls-4" d="M39.74,314.17c4.74-.58,9.52,0,14.24-0.36s9.42,0.09,14.1-.29,9.42,0.08,14.1-.3,9.32,0.08,13.95-.3,9.42,0.09,14.1-.3,9.32,0.08,13.95-.3,9.12,0.08,13.65-.3c4.81-.4,9.62,0,14.4-0.31,2.8-.21,5.59-0.15,8.39-0.24a2.35,2.35,0,0,1,1.59.28,64.94,64.94,0,0,1-7.85,6,149.68,149.68,0,0,1-28.52,15.58,4.2,4.2,0,0,1-.57.15c-3.95.13-7.89-.07-11.85,0.24-4.83.38-9.7-.08-14.55,0.32-4.48.37-9-.06-13.5,0.28-4.93.37-9.9-.07-14.85,0.32-4.33.34-8.69,0-13.05,0.26-5.89.33-11.81,0-17.71,0.38V314.17Z"/><path class="cls-5" d="M75.6,37.69a153.9,153.9,0,0,1,27.72,4.06,3.54,3.54,0,0,1,.55.23,4.26,4.26,0,0,1-1.28,1.23q-4.4,3.09-8.75,6.24c-4.84,3.49-9.66,7-14.51,10.5-3.39,2.44-6.81,4.84-10.2,7.28q-7,5.05-14,10.13C51,80.3,47,83.29,42.89,86.18c-1,.69-1.79,1.76-3.15,1.85V37.44h27.4a0.9,0.9,0,0,0,.94.3h3.29l1.82,0H75.6Z"/><path class="cls-6" d="M39.74,88c1.35-.09,2.17-1.16,3.15-1.85C47,83.29,51,80.3,55.1,77.35q7-5.07,14-10.13c3.39-2.44,6.81-4.84,10.2-7.28,4.84-3.49,9.67-7,14.51-10.5q4.36-3.14,8.75-6.24A4.26,4.26,0,0,0,103.87,42a95.46,95.46,0,0,1,11.07,3.1,75.2,75.2,0,0,1,7.3,2.66A2.45,2.45,0,0,1,121,49.34q-8.14,5.93-16.33,11.81c-5.46,3.91-11,7.78-16.41,11.7-7.79,5.61-15.54,11.29-23.34,16.9C58.75,94.16,52.55,98.5,46.44,103c-0.76.55-1.83,0.85-2.18,1.91l-4.52,0V88Z"/><path class="cls-7" d="M223.47,102.18c-2.07-3.71-4.44-7.24-6.65-10.87,0.31-.57.79-1,1.12-1.58,1.6-2.76,3.26-5.48,4.91-8.21q5-8.32,10-16.64,4.32-7.17,8.61-14.36l7.82-13.09h13.25a2.19,2.19,0,0,1-.41,1.41q-0.88,1.48-1.76,2.95l-18.64,31Q233.21,87,224.67,101.19A1.53,1.53,0,0,1,223.47,102.18Z"/><path class="cls-8" d="M39.74,335.25c5.9-.4,11.82-0.05,17.71-0.38,4.36-.24,8.72.08,13.05-0.26,5-.39,9.92,0,14.85-0.32,4.51-.34,9,0.08,13.5-0.28,4.86-.4,9.72.07,14.55-0.32,4-.31,7.9-0.11,11.85-0.24a88.91,88.91,0,0,1-11.07,4.16,144.59,144.59,0,0,1-18.43,4.72,140.82,140.82,0,0,1-17.25,2.26c-12.67.79-25.35,0.24-38,.4a5.45,5.45,0,0,1-.74-0.09v-9.64Z"/><path class="cls-9" d="M223.47,102.18a1.53,1.53,0,0,0,1.21-1Q233.2,87,241.75,72.76l18.64-31q0.89-1.47,1.76-2.95a2.19,2.19,0,0,0,.41-1.41h8.13v0.3a4.11,4.11,0,0,1-.77,1.77c-1.22,2-2.5,4-3.71,6C261.11,54,256,62.49,250.91,71c-6.16,10.38-12.45,20.68-18.66,31-0.52.87-1.39,1.64-1.3,2.81-1.73,0-3.47,0-5.2.07a1.18,1.18,0,0,1-1.24-.82C224.21,103.45,223.82,102.82,223.47,102.18Z"/><path class="cls-10" d="M277.93,37.44c1,0.58,2.23.38,3.34,0.59a3.85,3.85,0,0,1,1.56.27,0.65,0.65,0,0,0-.63.33,16.67,16.67,0,0,1-2,3.51q-5.44,9.12-10.93,18.21-6.09,10.12-12.19,20.24c-4,6.7-8.12,13.38-12.12,20.11a18.2,18.2,0,0,0-2.3,4.17q-4.07.15-8.13,0a4,4,0,0,1,.94-1.84q5.49-9.17,11-18.33,5.27-8.78,10.56-17.55c3.34-5.55,6.73-11.07,10-16.64,2.52-4.24,5.21-8.38,7.52-12.75l0.63-.05c0.69-.12,1.46.37,2.08-0.27h0.6Z"/><path class="cls-11" d="M191.51,61.22a192.39,192.39,0,0,0-18.86-15.71c-3.49-2.51-7-4.93-10.69-7.2a2.81,2.81,0,0,1-1.17-.88H206a2.36,2.36,0,0,1-.5,1.23C201.6,44.77,198,51,194.24,57.18,193.39,58.56,192.88,60.19,191.51,61.22Z"/><path class="cls-12" d="M209.23,80.82l-5.67-6.95a1.28,1.28,0,0,0,.62-0.62q4.43-7.37,8.87-14.74c2.88-4.78,5.78-9.55,8.62-14.37a70,70,0,0,0,3.88-6.71h9.94a1.83,1.83,0,0,1-.24,1c-3.59,6-7.12,12-10.76,17.92-4.42,7.21-8.75,14.48-13.13,21.72C210.76,79,210.5,80.35,209.23,80.82Z"/><path class="cls-13" d="M209.23,80.82c1.27-.47,1.53-1.77,2.12-2.74,4.38-7.24,8.71-14.51,13.13-21.72,3.64-5.94,7.17-12,10.76-17.92a1.83,1.83,0,0,0,.24-1h8.43c-0.4.81-.76,1.64-1.22,2.41Q237.24,49,231.77,58.08q-7.48,12.44-15,24.86a16.94,16.94,0,0,1-2.88,4.16Z"/><path class="cls-14" d="M225.53,37.44a70,70,0,0,1-3.88,6.71c-2.83,4.81-5.74,9.58-8.62,14.37s-5.92,9.82-8.87,14.74a1.28,1.28,0,0,1-.62.62l-6-6.63a1.64,1.64,0,0,0,.77-0.69q1.75-2.87,3.47-5.75c3.85-6.39,7.73-12.77,11.52-19.2a17,17,0,0,0,2.28-4.17h9.94Z"/><path class="cls-15" d="M213.89,87.1a16.94,16.94,0,0,0,2.88-4.16q7.54-12.4,15-24.86,5.48-9.11,10.92-18.23c0.46-.77.81-1.61,1.22-2.41h5.42L241.5,50.52q-4.3,7.18-8.61,14.36-5,8.32-10,16.64c-1.65,2.73-3.31,5.45-4.91,8.21-0.33.57-.81,1-1.12,1.58C215.75,90,214.81,88.54,213.89,87.1Z"/><path class="cls-16" d="M215.6,37.44a17,17,0,0,1-2.28,4.17c-3.79,6.43-7.67,12.8-11.52,19.2q-1.73,2.88-3.47,5.75a1.64,1.64,0,0,1-.77.69l-6-6c1.37-1,1.88-2.66,2.73-4C198,51,201.6,44.77,205.46,38.67a2.36,2.36,0,0,0,.5-1.23h9.64Z"/><path class="cls-17" d="M71.37,37.73H68.08a0.9,0.9,0,0,1-.94-0.3h4.22A2.5,2.5,0,0,0,71.37,37.73Z"/><path class="cls-10" d="M270.7,37.74v-0.3h3q0,0.15,0,.3h-3Z"/><path class="cls-18" d="M75.6,37.69H73.19a1.53,1.53,0,0,1,0-.26h2.41A1.42,1.42,0,0,0,75.6,37.69Z"/><path class="cls-19" d="M277.33,37.44c-0.62.64-1.39,0.15-2.09,0.27a1.74,1.74,0,0,1,0-.27h2.11Z"/><path class="cls-20" d="M73.16,37.44a1.53,1.53,0,0,0,0,.26l-1.82,0a2.5,2.5,0,0,1,0-.29h1.81Z"/><path class="cls-21" d="M275.22,37.44a1.74,1.74,0,0,0,0,.27l-0.63.05-0.89,0q0-.15,0-0.3h1.51Z"/><path class="cls-22" d="M150.51,213.28c0.47-2.27,1-4.54,1.41-6.82a86.87,86.87,0,0,0,1.18-20.87,103,103,0,0,0-2.48-16,1.11,1.11,0,0,0,1.48-.22q1.54-1,3.06-2.15c5.68-4.12,11.34-8.27,17-12.37,5-3.61,10.1-7.1,15.08-10.75q9.1-6.67,18.29-13.19a6,6,0,0,1,2.25-1.41,91.6,91.6,0,0,1,4.47,11.09,143.07,143.07,0,0,1,5,17.71c0.41,1.91.7,3.85,1,5.77A2.36,2.36,0,0,1,217,165.8q-5.42,3.85-10.82,7.73-7,5-13.93,10.06c-3.6,2.59-7.21,5.16-10.81,7.75l-13.81,10c-4.12,3-8.2,6-12.36,8.92C153.7,211.3,152.35,212.67,150.51,213.28Z"/><path class="cls-23" d="M265,277.12c2.7-.21,5.41.08,8.11-0.23,10.75-1.23,18.11-6.94,22.25-16.86a25.73,25.73,0,0,0,1.62-7,3,3,0,0,1,1.3-1.62l5.7-4.08c4.6-3.3,9.18-6.64,13.76-10,3.78-2.74,7.55-5.49,11.37-8.18,0.88-.62,1.6-1.52,2.74-1.74a8.32,8.32,0,0,1,1.63,1.49c1.69,1.58,3.19,3.37,5,4.84q4.19,4.55,8.74,8.73l0.3,0.6c-1.57,1.14-3.13,2.28-4.7,3.41-3.6,2.58-7.21,5.15-10.81,7.74q-8.54,6.16-17.05,12.35-7.75,5.6-15.52,11.17c-3.48,2.5-7,5-10.45,7.47q-8.06,5.8-16.11,11.61l-14,10L240,320.49a17.55,17.55,0,0,1-2.39-2.25c-1.44-1.39-2.77-2.9-4.28-4.2a106.45,106.45,0,0,1-8.08-8l5.93-4.26c4.17-3,8.35-5.93,12.5-8.92,6-4.33,12-8.65,18-13C262.79,279,264.23,278.45,265,277.12Z"/><path class="cls-24" d="M207.81,129.56a6,6,0,0,0-2.25,1.41q-9.2,6.52-18.29,13.19c-5,3.65-10.07,7.14-15.08,10.75-5.7,4.1-11.36,8.25-17,12.37q-1.51,1.1-3.06,2.15a1.11,1.11,0,0,1-1.48.22,103.39,103.39,0,0,0-4.75-13.41,91.51,91.51,0,0,0-6.77-12.36c-0.22-.33-0.4-0.69-0.59-1a2.48,2.48,0,0,0,1.85-.84c2.07-1.47,4.07-3,6.14-4.5,6.43-4.52,12.78-9.16,19.15-13.77,7.94-5.75,16-11.39,23.9-17.14a20.22,20.22,0,0,0,3.76-2.9,112.45,112.45,0,0,1,7.58,11.89c2.25,3.91,4.26,7.95,6.15,12C207.34,128.25,207.56,128.91,207.81,129.56Z"/><path class="cls-25" d="M150.51,213.28c1.84-.61,3.19-2,4.73-3.06,4.16-2.92,8.24-5.94,12.36-8.92l13.81-10c3.6-2.59,7.21-5.16,10.81-7.75q7-5,13.93-10.06,5.4-3.88,10.82-7.73a2.36,2.36,0,0,0,1.37-1.65,38,38,0,0,1,1.11,6.33,141.26,141.26,0,0,1,1.34,19.79c0,0.25,0,.5-0.05.75-2.9,2.1-5.79,4.22-8.71,6.31-5,3.59-10.08,7.14-15.09,10.74q-11.76,8.46-23.49,17c-3.51,2.54-7,5.15-10.53,7.61-2.41,1.67-4.71,3.52-7.23,5-3.08-2.75-5.86-5.79-8.81-8.67a6.24,6.24,0,0,1-1.48-1.65c1.34-3.25,2.76-6.47,3.79-9.85C149.6,216.1,150.06,214.69,150.51,213.28Z"/><path class="cls-26" d="M353,86.2a78.85,78.85,0,0,1,6.56,14.65,13,13,0,0,1,.92,3.13,1.85,1.85,0,0,0-.86.81q-4.11,6.87-8.21,13.74-5.92,9.88-11.86,19.76-5.67,9.42-11.35,18.84L318,173.92c-3.5,5.81-7,11.64-10.49,17.43-1.53,2.51-2.87,5.13-4.63,7.49-0.95-.54-1.46-1.57-2.4-2.11a12.09,12.09,0,0,0-1.83-2c-2.38-2.48-5-4.78-7.22-7.37a6.8,6.8,0,0,0,1.77-2.36c3.78-6.27,7.49-12.59,11.27-18.86,5.16-8.58,10.39-17.12,15.55-25.7,5-8.28,9.84-16.64,14.88-24.89,5.35-8.76,10.59-17.59,15.9-26.37C351.47,88.17,351.86,86.92,353,86.2Z"/><path class="cls-27" d="M361.44,274.44a71.24,71.24,0,0,1-4.28,12.79,93.36,93.36,0,0,1-35,42,91.37,91.37,0,0,1-32.69,13.47,68,68,0,0,1-14.15,1.64l-10.62,0a1.08,1.08,0,0,1,.63-0.93c1.56-1.07,3.09-2.18,4.63-3.29q7-5,13.93-10.05c3.56-2.56,7.14-5.09,10.69-7.65,4.77-3.44,9.51-6.9,14.28-10.33,4.16-3,8.36-5.94,12.52-8.94,6.38-4.61,12.73-9.25,19.1-13.86,5.65-4.09,11.29-8.18,17-12.19A16.51,16.51,0,0,1,361.44,274.44Z"/><path class="cls-28" d="M361.44,274.44a16.51,16.51,0,0,0-4,2.6c-5.7,4-11.34,8.11-17,12.19-6.37,4.61-12.72,9.26-19.1,13.86-4.16,3-8.36,5.95-12.52,8.94-4.77,3.43-9.51,6.9-14.28,10.33-3.55,2.56-7.13,5.09-10.69,7.65q-7,5-13.93,10.05c-1.54,1.11-3.07,2.21-4.63,3.29a1.08,1.08,0,0,0-.63.93,1.3,1.3,0,0,1-1.1-.35c-2.83-2.91-5.83-5.65-8.53-8.68a60.83,60.83,0,0,1,6.21-4.61c4-2.91,8-5.76,12-8.65l15.86-11.46q7.76-5.59,15.52-11.17c3.48-2.5,7-5,10.45-7.47,5.29-3.81,10.57-7.65,15.86-11.46q7.7-5.55,15.41-11.07c3.68-2.65,7.31-5.37,11-7.95,1.74-1.2,3.22-2.88,5.46-3.26,0.3,0.53,1,.65,1.23,1.25A72.16,72.16,0,0,1,361.44,274.44Z"/><path class="cls-29" d="M44.26,104.86c0.35-1.06,1.42-1.36,2.18-1.91,6.11-4.45,12.31-8.79,18.45-13.21,7.79-5.61,15.55-11.28,23.34-16.9,5.45-3.93,10.95-7.79,16.41-11.7s10.9-7.85,16.33-11.81a2.45,2.45,0,0,0,1.28-1.59,122.77,122.77,0,0,1,19,8.93c-3,2.26-6.12,4.44-9.19,6.63-5.7,4.08-11.34,8.25-17,12.34-5,3.6-10.09,7.1-15.07,10.73q-11.15,8.14-22.38,16.15c-1,.72-2.35,1.22-2.65,2.68-10-.54-20.07-0.22-30.11-0.31C44.65,104.92,44.45,104.88,44.26,104.86Z"/><path class="cls-30" d="M155.67,237.68c2.52-1.51,4.82-3.36,7.23-5,3.56-2.47,7-5.07,10.53-7.61q11.74-8.5,23.49-17c5-3.61,10.07-7.15,15.09-10.74,2.92-2.08,5.81-4.2,8.71-6.31a104.79,104.79,0,0,1-.41,13.06,149.45,149.45,0,0,1-2,15,1.43,1.43,0,0,1-.26.84,1.22,1.22,0,0,0-.82.3c-1.29.94-2.59,1.85-3.89,2.77q-6.44,4.6-12.88,9.21-7.15,5.15-14.28,10.33c-3.63,2.63-7.24,5.27-10.9,7.86a21.65,21.65,0,0,1-3.94,2.63,4.48,4.48,0,0,1-1.22-1.08c-4-4-8.06-8-12-12.07C157.29,239.12,156.19,238.71,155.67,237.68Z"/><path class="cls-31" d="M193.31,103.69a20.22,20.22,0,0,1-3.76,2.9c-7.94,5.75-16,11.39-23.9,17.14-6.37,4.61-12.72,9.24-19.15,13.77-2.08,1.46-4.07,3-6.14,4.5a2.48,2.48,0,0,1-1.85.84c-2-2.61-3.93-5.27-6.06-7.78-2.53-3-5.37-5.64-8.13-8.37a1.62,1.62,0,0,1,.64-0.82l5.1-3.65c4.25-3,8.52-6.07,12.76-9.13q9.63-6.95,19.24-13.93c4.88-3.53,9.75-7.09,14.67-10.57,0.94-.67,1.74-1.67,3-1.75a100.89,100.89,0,0,1,7.74,8.91A81,81,0,0,1,193.31,103.69Z"/><path class="cls-32" d="M255,335.25c2.7,3,5.71,5.77,8.53,8.68a1.3,1.3,0,0,0,1.1.35l10.62,0a6.06,6.06,0,0,1-2.52.23H161.9c-0.09-.54.37-0.59,0.63-0.75a185.34,185.34,0,0,0,22.87-17.06,2.52,2.52,0,0,1,.38-0.23c0.06,0.78.66,0.61,1.12,0.61,2.19,0,4.38-.1,6.57-0.25,4.48-.3,9,0,13.48-0.27,5.73-.32,11.49-0.24,17.23-0.31,6.3-.08,12.59-0.54,18.89-0.37a0.6,0.6,0,0,0,.77-0.39,8.43,8.43,0,0,0-1.56-1.71,1.51,1.51,0,0,1-.78-1.51,36.78,36.78,0,0,1,3.78,3.64Q250,330.75,255,335.25Z"/><path class="cls-33" d="M353,86.2c-1.1.73-1.49,2-2.12,3-5.31,8.78-10.54,17.61-15.9,26.37-5,8.25-9.9,16.6-14.88,24.89-5.16,8.58-10.39,17.12-15.55,25.7-3.78,6.28-7.48,12.59-11.27,18.86a6.8,6.8,0,0,1-1.77,2.36l-2.41-2.11a7.18,7.18,0,0,0-1.83-1.94,37.15,37.15,0,0,1-4.78-4.69,1.05,1.05,0,0,0,.93-0.63c0.65-1,1.22-2.06,1.85-3.07,3.62-5.79,7-11.7,10.57-17.55,5.76-9.56,11.56-19.1,17.33-28.66q7.26-12,14.46-24.1c5.46-9.1,10.9-18.22,16.39-27.3,0.5-.82.73-1.91,1.8-2.32A65.67,65.67,0,0,1,353,86.2Z"/><path class="cls-34" d="M275.16,105.21c-6.45-.54-12.92-0.19-19.37-0.29-0.35,0-.7,0-1-0.06a2.68,2.68,0,0,1,.61-1.65q1.86-3,3.67-6c3.15-5.26,6.28-10.54,9.44-15.8q5.66-9.43,11.35-18.84c3.4-5.64,6.83-11.26,10.19-16.92,1.06-1.79,2.39-3.45,3-5.5a77,77,0,0,1,13.6,4.35,33,33,0,0,1,4.47,2A9.84,9.84,0,0,1,309.89,49l-10.4,17.31-8.72,14.48-9.11,15.12c-1.7,2.82-3.43,5.62-5.09,8.46A1.37,1.37,0,0,1,275.16,105.21Z"/><path class="cls-35" d="M179.75,86.82c-1.3.08-2.1,1.09-3,1.75-4.92,3.48-9.79,7-14.67,10.57q-9.62,7-19.24,13.93c-4.24,3.06-8.51,6.09-12.76,9.13l-5.1,3.65a1.62,1.62,0,0,0-.64.82,113,113,0,0,0-9.31-7.11c-2.18-1.41-4.4-2.76-6.61-4.14,1.08-1.42,2.68-2.2,4.08-3.21,6.11-4.45,12.3-8.78,18.44-13.19,7.91-5.68,15.83-11.36,23.69-17.12,3.77-2.76,7.7-5.3,11.27-8.33a94.91,94.91,0,0,1,8.48,7.61A70.71,70.71,0,0,1,179.75,86.82Z"/><path class="cls-36" d="M75,105.23c0.3-1.46,1.65-2,2.65-2.68q11.21-8,22.38-16.15c5-3.64,10.06-7.13,15.07-10.73,5.69-4.09,11.33-8.27,17-12.34,3.07-2.2,6.16-4.37,9.19-6.63a87.07,87.07,0,0,1,9,5.3,33.13,33.13,0,0,1,4.16,2.88,1.11,1.11,0,0,0-.68.26c-3.12,2.23-6.25,4.43-9.36,6.67-4.65,3.34-9.28,6.7-13.92,10-3.56,2.56-7.13,5.09-10.68,7.65q-7.33,5.28-14.64,10.58l-11.16,8a1.19,1.19,0,0,0-.63,1,86.22,86.22,0,0,0-18-3.64A1.46,1.46,0,0,1,75,105.23Z"/><path class="cls-37" d="M282.44,178.66a37.15,37.15,0,0,0,4.78,4.69,7.18,7.18,0,0,1,1.83,1.94,40.55,40.55,0,0,0-4.05,2.79c-3.62,2.55-7.22,5.14-10.81,7.72q-8,5.75-16,11.53c-3.43,2.48-6.83,5-10.27,7.45a7.08,7.08,0,0,1-2.54,1.52c0-2.11.45-4.18,0.67-6.26,0.52-5,.75-10.08,1-15.14,0.18-4.22-.23-8.41-0.1-12.62a3.32,3.32,0,0,0,1.64-.71c2.68-1.9,5.32-3.86,8-5.78l11.87-8.57a2.4,2.4,0,0,1,1.65-.6h0.29a74.24,74.24,0,0,0,6,6A72.25,72.25,0,0,0,282.44,178.66Z"/><path class="cls-38" d="M282.44,178.66a72.25,72.25,0,0,1-6-6,2.27,2.27,0,0,0,1.61-1.4c3.27-5.4,6.42-10.86,9.8-16.19a63,63,0,0,0,3.52-6.24c0.22-.44.57-0.91-0.21-1.18a35.21,35.21,0,0,0,4.24-7.23c0.33,0.49.6,0.21,0.8-.09,0.43-.67.82-1.37,1.23-2.05,3.47-5.77,7-11.51,10.4-17.3,3.33-5.62,6.86-11.12,10.14-16.76,3.1-5.35,6.35-10.61,9.53-15.91s6.41-10.57,9.54-15.9a31.38,31.38,0,0,0,2.67-4.64,35.11,35.11,0,0,1,5.3,6.4,6.61,6.61,0,0,0,.78.89c-1.07.4-1.3,1.5-1.8,2.32-5.5,9.08-10.94,18.2-16.39,27.3q-7.23,12.05-14.46,24.1c-5.76,9.56-11.57,19.09-17.33,28.66-3.52,5.85-6.94,11.76-10.57,17.55-0.63,1-1.2,2.07-1.85,3.07A1.05,1.05,0,0,1,282.44,178.66Z"/><path class="cls-39" d="M302.92,198.84c1.77-2.36,3.11-5,4.63-7.49,3.53-5.79,7-11.62,10.49-17.43l10.11-16.79q5.67-9.42,11.35-18.84,5.94-9.87,11.86-19.76,4.12-6.87,8.21-13.74a1.85,1.85,0,0,1,.86-0.81,62.54,62.54,0,0,1,3,13.55,1,1,0,0,0-.93.63c-0.36.65-.78,1.28-1.17,1.92q-4.11,6.78-8.21,13.56c-2.57,4.27-5.11,8.56-7.68,12.84q-5.2,8.65-10.41,17.3L325,180.56c-3.49,5.81-7,11.64-10.49,17.43-1.52,2.51-2.86,5.13-4.63,7.48A50.76,50.76,0,0,1,302.92,198.84Z"/><path class="cls-40" d="M275.16,105.21a1.37,1.37,0,0,0,1.41-.86c1.67-2.84,3.4-5.64,5.09-8.46l9.11-15.12,8.72-14.48L309.89,49A9.84,9.84,0,0,0,311,46.55,64.8,64.8,0,0,1,323.7,54a3,3,0,0,1-.6,1.35c-1.06,1.74-2.11,3.5-3.16,5.25q-4.72,7.88-9.44,15.76c-3.34,5.54-6.71,11.07-10,16.61q-5.47,9.08-10.91,18.19a1,1,0,0,1-.88.69,33.56,33.56,0,0,0-7.27-4.68A50.79,50.79,0,0,0,275.16,105.21Z"/><path class="cls-41" d="M241.49,322.3a1.51,1.51,0,0,0,.78,1.51,8.43,8.43,0,0,1,1.56,1.71,0.6,0.6,0,0,1-.77.39c-6.3-.17-12.59.3-18.89,0.37-5.74.07-11.5,0-17.23,0.31-4.5.25-9,0-13.48,0.27-2.19.15-4.38,0.25-6.57,0.25-0.47,0-1.07.17-1.12-.61,2-1.88,4-3.73,6-5.64a180.52,180.52,0,0,0,21.39-24.72,3.49,3.49,0,0,1,.87-1c1.14,1.67,2.82,2.77,4.25,4.14,2.34,2.23,4.48,4.67,6.93,6.78a106.45,106.45,0,0,0,8.08,8c1.51,1.3,2.85,2.81,4.28,4.2a17.55,17.55,0,0,0,2.39,2.25Z"/><path class="cls-42" d="M245.41,216.3a7.08,7.08,0,0,0,2.54-1.52c3.45-2.45,6.85-5,10.27-7.45q8-5.77,16-11.53c3.6-2.59,7.19-5.18,10.81-7.72a40.55,40.55,0,0,1,4.05-2.79l2.41,2.11c2.27,2.59,4.84,4.88,7.22,7.37a12.09,12.09,0,0,1,1.83,2,2.9,2.9,0,0,0-1.47.69c-4.13,3-8.3,5.85-12.4,8.85-6.7,4.91-13.48,9.72-20.21,14.61-1.64,1.19-3.53,2.1-4.76,3.81H243.92Z"/><path class="cls-43" d="M364.35,126.87a77.9,77.9,0,0,1-1.42,21.1,1.58,1.58,0,0,0-1,.87l-11.76,19.62-12.77,21.28C333,197.17,328.51,204.62,324,212c-0.95,1.56-1.64,3.3-3,4.58l-5.73-5.42c-0.34-.74-1.16-1.08-1.5-1.81a1.11,1.11,0,0,0,1-.76c0.78-1.33,1.62-2.63,2.41-4,3.74-6.25,7.46-12.51,11.21-18.75,3.65-6.07,7.35-12.1,11-18.17,3.16-5.26,6.28-10.54,9.43-15.8,4.46-7.44,8.91-14.89,13.44-22.3C362.85,128.67,363.1,127.37,364.35,126.87Z"/><path class="cls-44" d="M288.67,111.85a1,1,0,0,0,.88-0.69Q295,102.06,300.46,93c3.34-5.54,6.71-11.07,10-16.61q4.74-7.87,9.44-15.76c1-1.75,2.09-3.51,3.16-5.25a3,3,0,0,0,.6-1.35,0.59,0.59,0,0,1,.29,0,70.15,70.15,0,0,1,9.37,7.47c-0.18,1.56-1.28,2.68-2,3.94C327.61,71.73,323.8,78,320,84.25L309.93,101c-3.49,5.81-7,11.62-10.48,17.41a43.89,43.89,0,0,1-3.4,5.42,27.62,27.62,0,0,0-5.46-9.9C290,113.24,289.31,112.55,288.67,111.85Z"/><path class="cls-45" d="M315.26,211.19l5.73,5.42a100.91,100.91,0,0,0,7.23,7.23,30.06,30.06,0,0,1,3.61,3.62c-1.14.22-1.86,1.12-2.74,1.74-3.82,2.69-7.59,5.44-11.37,8.18-4.59,3.32-9.16,6.66-13.76,10l-5.7,4.08A3,3,0,0,0,297,253a29.14,29.14,0,0,0-1.36-10.66,28.81,28.81,0,0,0-7.16-10.93,2.23,2.23,0,0,1,1.31-2c3.31-2.28,6.54-4.68,9.79-7,3.81-2.77,7.63-5.54,11.49-8.24A33.85,33.85,0,0,1,315.26,211.19Z"/><path class="cls-46" d="M315.26,211.19a33.85,33.85,0,0,0-4.24,2.94c-3.86,2.7-7.67,5.47-11.49,8.24-3.25,2.36-6.47,4.76-9.79,7a2.23,2.23,0,0,0-1.31,2,30.43,30.43,0,0,0-8.19-4.95,26.21,26.21,0,0,0-8.65-1.73c-3.31-.08-6.62-0.06-9.93-0.08,1.24-1.71,3.12-2.62,4.76-3.81,6.73-4.88,13.51-9.69,20.21-14.61,4.09-3,8.27-5.9,12.4-8.85a2.9,2.9,0,0,1,1.47-.69c0.94,0.54,1.46,1.57,2.4,2.11a50.76,50.76,0,0,0,6.92,6.63,31.22,31.22,0,0,0,3.92,3.91C314.1,210.11,314.92,210.45,315.26,211.19Z"/><path class="cls-47" d="M293,40.16c-0.6,2.05-1.92,3.71-3,5.5-3.36,5.66-6.79,11.28-10.19,16.92Q274.13,72,268.46,81.42C265.3,86.68,262.17,92,259,97.22q-1.81,3-3.67,6a2.68,2.68,0,0,0-.61,1.65c-4,.09-8,0.1-12,0a18.2,18.2,0,0,1,2.3-4.17c4-6.73,8.08-13.41,12.12-20.11s8.13-13.49,12.19-20.24q5.48-9.1,10.93-18.21a16.67,16.67,0,0,0,2-3.51,0.65,0.65,0,0,1,.63-0.33,38.37,38.37,0,0,1,7.62,1.29C291.29,39.79,292.14,40,293,40.16Z"/><path class="cls-48" d="M225.23,306c-2.46-2.11-4.59-4.55-6.93-6.78-1.43-1.36-3.11-2.47-4.25-4.14a25.53,25.53,0,0,1,2.31-3.49c3-4.41,5.78-8.91,8.35-13.56a1.63,1.63,0,0,1,1.61-1q19.11,0.05,38.22,0a3.5,3.5,0,0,1,.45.06c-0.76,1.33-2.19,1.86-3.33,2.7-6,4.39-12,8.71-18,13-4.16,3-8.34,5.95-12.5,8.92Z"/><path class="cls-49" d="M93.34,109a1.19,1.19,0,0,1,.63-1l11.16-8q7.33-5.28,14.64-10.58c3.55-2.56,7.13-5.09,10.68-7.65,4.65-3.34,9.28-6.7,13.92-10,3.11-2.24,6.25-4.44,9.36-6.67a1.11,1.11,0,0,1,.68-0.26,69.27,69.27,0,0,1,7.86,5.79,3.92,3.92,0,0,1-1,1.06c-5.41,3.91-10.81,7.83-16.23,11.72-6.15,4.41-12.34,8.77-18.48,13.19q-11.4,8.2-22.74,16.46a0.17,0.17,0,0,1-.2-0.07,1.18,1.18,0,0,0-.92-1.34c-0.53-.21-0.72.12-0.9,0.5a1.17,1.17,0,0,1-.9-0.36,2.34,2.34,0,0,0-2.77-1.15A42.27,42.27,0,0,1,93.34,109Z"/><path class="cls-50" d="M296,123.85a43.89,43.89,0,0,0,3.4-5.42c3.52-5.79,7-11.61,10.48-17.41L320,84.25c3.78-6.27,7.59-12.52,11.31-18.83,0.74-1.26,1.84-2.38,2-3.94a44.64,44.64,0,0,1,6.34,6.27A31.38,31.38,0,0,1,337,72.39c-3.14,5.33-6.36,10.6-9.54,15.9S321.06,98.85,318,104.2c-3.28,5.65-6.81,11.15-10.14,16.76-3.43,5.79-6.93,11.54-10.4,17.3-0.41.68-.8,1.38-1.23,2.05-0.2.31-.47,0.59-0.8,0.09A29.32,29.32,0,0,0,296.92,129,43.49,43.49,0,0,0,296,123.85Z"/><path class="cls-51" d="M313.76,209.38a31.22,31.22,0,0,1-3.92-3.91c1.77-2.35,3.11-5,4.63-7.48,3.52-5.79,7-11.62,10.49-17.43l10.11-16.78q5.21-8.65,10.41-17.3c2.57-4.27,5.11-8.57,7.68-12.84q4.09-6.79,8.21-13.56c0.39-.64.8-1.26,1.17-1.92a1,1,0,0,1,.93-0.63,45.32,45.32,0,0,1,.89,9.34c-1.25.5-1.5,1.8-2.09,2.77-4.52,7.41-9,14.85-13.44,22.3-3.15,5.26-6.27,10.55-9.43,15.8-3.65,6.07-7.35,12.1-11,18.17-3.75,6.24-7.47,12.5-11.21,18.75-0.79,1.33-1.63,2.63-2.41,4A1.11,1.11,0,0,1,313.76,209.38Z"/><path class="cls-52" d="M328.22,223.83a100.91,100.91,0,0,1-7.23-7.23c1.38-1.28,2.07-3,3-4.58,4.51-7.41,9-14.85,13.42-22.28l12.77-21.28,11.76-19.62a1.58,1.58,0,0,1,1-.87,72.43,72.43,0,0,1-3.57,13.78,91.64,91.64,0,0,1-15.75,28.18,1.28,1.28,0,0,0,0,2c0.84,0.85,1.25,2,2.13,2.86a5.2,5.2,0,0,1-1.08,2.11c-4.79,7.71-9.36,15.55-14.06,23.32A14.53,14.53,0,0,1,328.22,223.83Z"/><path class="cls-53" d="M328.22,223.83a14.53,14.53,0,0,0,2.37-3.58c4.7-7.76,9.27-15.61,14.06-23.32a5.2,5.2,0,0,0,1.08-2.11,70.19,70.19,0,0,1,8.39,13.36c0.21,0.91-.62,1.32-1,1.93q-6,10.15-12.11,20.25c-0.74,1.21-1.24,2.65-2.58,3.42-1.8-1.47-3.3-3.25-5-4.84a8.32,8.32,0,0,0-1.63-1.49A30.06,30.06,0,0,0,328.22,223.83Z"/><path class="cls-54" d="M171.33,253a21.65,21.65,0,0,0,3.94-2.63c3.66-2.58,7.27-5.23,10.9-7.86q7.14-5.17,14.28-10.33,6.42-4.63,12.88-9.21c1.3-.93,2.6-1.84,3.89-2.77a1.22,1.22,0,0,1,.82-0.3c-0.59,2.67-1.13,5.36-1.78,8a10.34,10.34,0,0,1-.93,3.13,2.58,2.58,0,0,0-1.47.66c-5.67,4.11-11.31,8.27-17,12.3-4.25,3-8.36,6.16-12.72,9-1.92,1.25-3.75,2.74-5.57,4.18-0.53.42-1.47,0.59-1.47,1.55A63.51,63.51,0,0,1,171.33,253Z"/><path class="cls-55" d="M270.09,166.62a2.4,2.4,0,0,0-1.65.6l-11.87,8.57c-2.66,1.93-5.31,3.88-8,5.78a3.32,3.32,0,0,1-1.64.71c-0.45-4.31-.62-8.64-1.22-12.93-0.32-2.31-.6-4.63-0.9-6.95a1.33,1.33,0,0,0,.84-0.29q2.81-2,5.61-3.93a1,1,0,0,0,.47-0.89l9,0a66,66,0,0,0,6.18,6.23A29.09,29.09,0,0,1,270.09,166.62Z"/><path class="cls-56" d="M194.84,276.57a4.15,4.15,0,0,0-1.07-1.23l-10-10a3.88,3.88,0,0,1-1-1.12l2.64-1.93,11-8q7-5,13.95-10c0.28-.2.56-0.59,1-0.27a132,132,0,0,1-6.36,15.1,177.73,177.73,0,0,1-9.77,17A3,3,0,0,1,194.84,276.57Z"/><path class="cls-57" d="M338.45,233.77c1.34-.77,1.84-2.21,2.58-3.42q6.12-10.08,12.11-20.25c0.36-.61,1.19-1,1-1.93A68,68,0,0,1,359.86,222c0,0.7-.61,1-0.91,1.5-3.32,5.57-6.63,11.14-10,16.67-0.5.82-.74,1.9-1.75,2.37Q342.63,238.32,338.45,233.77Z"/><path class="cls-49" d="M103.78,113.07q11.37-8.24,22.74-16.46c6.14-4.42,12.33-8.78,18.48-13.19,5.42-3.89,10.82-7.81,16.23-11.72a3.92,3.92,0,0,0,1-1.06,27.47,27.47,0,0,1,3.59,3c-3.57,3-7.5,5.57-11.27,8.33C146.74,87.67,138.82,93.35,130.9,99c-6.14,4.41-12.33,8.74-18.44,13.19-1.39,1-3,1.79-4.08,3.21A38,38,0,0,1,103.78,113.07Z"/><path class="cls-9" d="M273.72,37.74l0.89,0c-2.3,4.37-5,8.51-7.52,12.75-3.31,5.57-6.69,11.09-10,16.64q-5.29,8.77-10.56,17.55Q241,93.85,235.5,103a4,4,0,0,0-.94,1.84,22.58,22.58,0,0,1-3.61,0c-0.09-1.17.78-1.94,1.3-2.81,6.21-10.35,12.5-20.65,18.66-31,5.06-8.54,10.2-17,15.32-25.54,1.21-2,2.49-4,3.71-6a4.11,4.11,0,0,0,.77-1.77h3Z"/><path class="cls-58" d="M347.19,242.5c1-.47,1.25-1.55,1.75-2.37,3.38-5.53,6.69-11.1,10-16.67,0.3-.5.94-0.8,0.91-1.5a55.78,55.78,0,0,1,3,11.77,20.67,20.67,0,0,1-2,3.31c-2.32,4-4.71,7.87-7.08,11.79a37.14,37.14,0,0,1-4.56-4.11,8.87,8.87,0,0,0-1.76-1.63Z"/><path class="cls-54" d="M181.87,263.28l-1.51-1.2a6.69,6.69,0,0,1-1.8-1.81,0.85,0.85,0,0,1,.47-0.7c1.54-1.18,3.11-2.32,4.7-3.45,5.31-3.79,10.56-7.67,15.86-11.48,4.25-3.05,8.54-6,12.72-9.18a2.47,2.47,0,0,1,2.18-.76,22.75,22.75,0,0,0-1,3.29c-0.49.3-1.23,0.41-1.17,1.19,0.14,1.9-1.21,2.7-2.54,3.53-0.21.13-.43,0.25-0.63,0.4l-13.9,10c-3.71,2.68-7.4,5.38-11.13,8A7.55,7.55,0,0,0,181.87,263.28Z"/><path class="cls-50" d="M291.14,147.63c0.78,0.27.42,0.74,0.21,1.18a63,63,0,0,1-3.52,6.24c-3.38,5.32-6.54,10.79-9.8,16.19a2.27,2.27,0,0,1-1.61,1.4,74.24,74.24,0,0,1-6-6,12.58,12.58,0,0,0,2.1-3.17c1.15-1.84,2.23-3.73,3.34-5.59,0.5-.84,0-0.9-0.66-0.9a35.14,35.14,0,0,0,7.61-2.63,24.71,24.71,0,0,0,8-6.43A1.7,1.7,0,0,1,291.14,147.63Z"/><path class="cls-59" d="M353.81,248.83c2.37-3.93,4.76-7.84,7.08-11.79a20.67,20.67,0,0,0,2-3.31,38.48,38.48,0,0,1,1.12,6.75,82.48,82.48,0,0,1,.58,9.85c0,2.74-.16,5.48-0.26,8.22a1.33,1.33,0,0,1-.22.85c-0.22-.6-0.93-0.72-1.23-1.25a6.45,6.45,0,0,0-1.3-1.43C359,254.07,356.25,251.6,353.81,248.83Z"/><path class="cls-54" d="M214.47,234.7a2.47,2.47,0,0,0-2.18.76c-4.18,3.14-8.47,6.13-12.72,9.18-5.3,3.81-10.55,7.68-15.86,11.48-1.58,1.13-3.15,2.27-4.7,3.45a0.85,0.85,0,0,0-.47.7,4.75,4.75,0,0,1-1.51-1.5c0-1,.94-1.13,1.47-1.55,1.82-1.44,3.65-2.93,5.57-4.18,4.36-2.85,8.47-6,12.72-9,5.73-4,11.37-8.19,17-12.3a2.58,2.58,0,0,1,1.47-.66A9.35,9.35,0,0,1,214.47,234.7Z"/><path class="cls-44" d="M275.17,157c0.63,0,1.16.06,0.66,0.9-1.11,1.86-2.19,3.75-3.34,5.59a12.58,12.58,0,0,1-2.1,3.17h-0.29a29.09,29.09,0,0,0-3.15-3.13,66,66,0,0,1-6.18-6.23c2.25,0,4.5,0,6.76,0A71.41,71.41,0,0,0,275.17,157Z"/><path class="cls-54" d="M181.87,263.28a7.55,7.55,0,0,1,2.23-2.11c3.73-2.65,7.42-5.35,11.13-8l13.9-10c0.2-.15.42-0.27,0.63-0.4,1.33-.83,2.67-1.63,2.54-3.53-0.06-.78.68-0.89,1.17-1.19a35.86,35.86,0,0,1-2.08,6c-0.45-.32-0.73.07-1,0.27q-7,5-13.95,10l-11,8-2.64,1.93A1.86,1.86,0,0,1,181.87,263.28Z"/><path class="cls-60" d="M251.73,157.3a1,1,0,0,1-.47.89q-2.79,2-5.61,3.93a1.33,1.33,0,0,1-.84.29c-0.29-1.47-.58-2.94-0.88-4.4-0.13-.63.18-0.77,0.74-0.77C247,157.27,249.38,157.28,251.73,157.3Z"/><path class="cls-27" d="M177.05,258.77a4.75,4.75,0,0,0,1.51,1.5,6.69,6.69,0,0,0,1.8,1.81,9.81,9.81,0,0,1-3.9.55c-8.56-.12-17.1.31-25.65,0.44-4.79.08-9.61-.12-14.38,0.27-4,.33-7.89.09-11.83,0.24-3,.11-6.07.46-9.12,0.3-0.47,0-1,.21-1.37-0.34,3-2.2,6.07-4.33,8.91-6.77a85.8,85.8,0,0,0,21.66-28.11,4.23,4.23,0,0,1,.71-1.3,6.24,6.24,0,0,0,1.48,1.65c2.95,2.88,5.73,5.92,8.81,8.67,0.52,1,1.62,1.43,2.39,2.21,4,4.05,8,8.05,12,12.07a4.48,4.48,0,0,0,1.22,1.08A63.51,63.51,0,0,0,177.05,258.77Z"/><path class="cls-49" d="M101.76,112.15c0.18-.38.37-0.71,0.9-0.5a1.18,1.18,0,0,1,.92,1.34A4.66,4.66,0,0,1,101.76,112.15Z"/><path class="cls-49" d="M98.09,110.64a2.34,2.34,0,0,1,2.77,1.15A10.06,10.06,0,0,1,98.09,110.64Z"/><path class="cls-61" d="M353.81,248.83c2.44,2.77,5.19,5.23,7.74,7.89a6.45,6.45,0,0,1,1.3,1.43c-2.24.38-3.72,2.05-5.46,3.26-3.73,2.58-7.35,5.3-11,7.95q-7.7,5.54-15.41,11.07c-5.29,3.81-10.57,7.65-15.86,11.46-3.48,2.5-7,5-10.45,7.47q-7.77,5.58-15.52,11.17L273.26,322c-4,2.88-8,5.74-12,8.65a60.83,60.83,0,0,0-6.21,4.61q-5-4.5-9.77-9.31a36.78,36.78,0,0,0-3.78-3.64L240,320.49l18.9-13.62,14-10q8.06-5.8,16.11-11.61c3.48-2.5,7-5,10.45-7.47q7.77-5.57,15.52-11.17,8.54-6.17,17.05-12.35c3.59-2.59,7.21-5.16,10.81-7.74,1.57-1.13,3.14-2.27,4.7-3.41a8.87,8.87,0,0,1,1.76,1.63A37.14,37.14,0,0,0,353.81,248.83Z"/></g></svg>