<?xml version="1.0" encoding="utf-8"?>
<!-- Generator: Adobe Illustrator 16.0.0, SVG Export Plug-In . SVG Version: 6.00 Build 0)  -->
<!DOCTYPE svg PUBLIC "-//W3C//DTD SVG 1.1//EN" "http://www.w3.org/Graphics/SVG/1.1/DTD/svg11.dtd">
<svg version="1.1" id="Layer_1" xmlns="http://www.w3.org/2000/svg" xmlns:xlink="http://www.w3.org/1999/xlink" x="0px" y="0px"
	 width="100px" height="100px" viewBox="0 0 100 100" enable-background="new 0 0 100 100" xml:space="preserve">
<g opacity="0.3">
	<path d="M339.588,71.679c-31.384,0-56.925,25.543-56.925,56.929c0,31.395,25.541,56.936,56.925,56.936
		c31.396,0,56.94-25.541,56.94-56.936C396.528,97.222,370.984,71.679,339.588,71.679L339.588,71.679z M364.997,115.584
		c0.02,0.56,0.03,1.13,0.03,1.704c0,17.311-13.176,37.272-37.283,37.272c-7.401,0-14.289-2.158-20.089-5.887
		c1.03,0.124,2.07,0.189,3.125,0.189c6.146,0,11.79-2.092,16.278-5.609c-5.733-0.112-10.568-3.896-12.237-9.105
		c0.795,0.158,1.612,0.235,2.463,0.235c1.187,0,2.35-0.154,3.449-0.458c-5.992-1.198-10.516-6.493-10.516-12.841
		c0-0.058,0-0.112,0.013-0.169c1.756,0.985,3.786,1.567,5.936,1.633c-3.518-2.339-5.837-6.357-5.837-10.903
		c0-2.397,0.651-4.646,1.772-6.585c6.458,7.929,16.124,13.146,27.005,13.694c-0.224-0.964-0.334-1.958-0.334-2.99
		c0-7.233,5.867-13.101,13.102-13.101c3.772,0,7.175,1.591,9.56,4.13c2.989-0.581,5.802-1.668,8.333-3.179
		c-0.986,3.067-3.06,5.632-5.768,7.256c2.653-0.313,5.186-1.019,7.524-2.059C369.778,111.432,367.547,113.737,364.997,115.584
		L364.997,115.584z M364.997,115.584"/>
</g>
<g opacity="0.3">
	<path d="M50.244,59.794c5.436,0,9.862-4.416,9.862-9.858c0-2.143-0.696-4.126-1.86-5.747c-1.793-2.479-4.706-4.105-8.002-4.105
		c-3.282,0-6.199,1.616-7.989,4.105c-1.173,1.62-1.86,3.604-1.871,5.747C40.384,55.379,44.811,59.794,50.244,59.794L50.244,59.794z
		 M50.244,59.794"/>
	<path d="M71.777,37.875v-9.492h-1.24l-8.262,0.03l0.04,9.492L71.777,37.875z M71.777,37.875"/>
	<path d="M50.244,0.689C23.094,0.689,1,22.786,1,49.937C1,77.096,23.094,99.19,50.244,99.19c27.161,0,49.257-22.094,49.257-49.253
		C99.501,22.786,77.404,0.689,50.244,0.689L50.244,0.689z M78.256,44.19v22.937c0,5.969-4.852,10.822-10.828,10.822H33.063
		c-5.969,0-10.822-4.853-10.822-10.822V32.762c0-5.977,4.853-10.83,10.822-10.83h34.365c5.977,0,10.828,4.853,10.828,10.83V44.19z
		 M78.256,44.19"/>
	<path d="M65.569,49.937c0,8.445-6.867,15.321-15.325,15.321c-8.445,0-15.312-6.876-15.312-15.321c0-2.027,0.407-3.973,1.124-5.747
		h-8.359v22.937c0,2.967,2.399,5.359,5.366,5.359h34.365c2.963,0,5.366-2.393,5.366-5.359V44.19h-8.359
		C65.152,45.964,65.569,47.91,65.569,49.937L65.569,49.937z M65.569,49.937"/>
</g>
</svg>
