<svg id="Layer_1" data-name="Layer 1" xmlns="http://www.w3.org/2000/svg" viewBox="0 0 400 400"><defs><style>.cls-1{fill:#f1dd40;}.cls-2{fill:#333430;}</style></defs><title>Untitled-1</title><g id="xhfFws.tif"><path class="cls-1" d="M200,400q-99.13,0-198.25,0C0.32,400,0,399.68,0,398.25Q0.06,200,0,1.75C0,0.32.32,0,1.75,0Q200,0.06,398.25,0c1.43,0,1.75.32,1.75,1.75Q399.94,200,400,398.25c0,1.43-.32,1.75-1.75,1.75Q299.13,399.94,200,400Zm106-31.68c9.94-.06,20.06-1.38,29.73-5.19,12.1-4.76,21.68-12.41,27.47-24.31,4.12-8.47,5.24-17.5,4.8-26.8-0.71-15.17-6.64-27.74-18.53-37.38-7.93-6.43-16.9-11.07-26.13-15.29-8.16-3.73-16.6-6.83-24.55-11a34.86,34.86,0,0,1-8.62-6.15c-6.47-6.5-6.92-22.26,6.28-26.63,9-3,17.38-1.39,24.48,5.28a34.82,34.82,0,0,1,6.27,8.31c0.54,0.95.94,1.07,1.86,0.48q13.47-8.71,27-17.34c0.79-.5,1-0.87.48-1.76-7.19-12.18-16.77-21.62-30.61-25.8-14.88-4.49-29.86-4.55-44.61.6-12.26,4.28-21.65,12.14-27.51,23.9-4.25,8.51-5.4,17.59-4.77,27,0.9,13.44,5.92,25,16,34.19,7.37,6.76,16,11.51,25,15.6,8.52,3.85,17.26,7.21,25.62,11.43a36.2,36.2,0,0,1,10.27,7.07,16.63,16.63,0,0,1,4.22,15.82c-1.4,6.39-5.82,10.32-11.71,12.43a39.32,39.32,0,0,1-33-2.47c-7.06-3.78-12-9.77-16.25-16.43-0.71-1.13-1.19-1.42-2.47-.67q-13.74,8.08-27.59,16c-1.23.7-1.37,1.21-.7,2.43a67,67,0,0,0,24.91,26C276.36,365.25,290.65,368.14,306,368.28ZM217.1,251.69h0.13c0-21.92,0-43.84.05-65.76,0-2-.57-2.34-2.41-2.33q-16.44.13-32.88,0c-1.86,0-2.25.48-2.25,2.28q0.08,62,0,123.92a61.66,61.66,0,0,1-.71,9.84q-1.92,11.95-12.34,14.43a31.87,31.87,0,0,1-7.55.68,20.34,20.34,0,0,1-15.94-7.53,62.37,62.37,0,0,1-7-10.57c-0.53-.95-0.91-1-1.84-0.48q-14.1,8.6-28.25,17.09c-0.87.52-1.08,0.92-.59,1.9,6.32,12.61,15.47,22.44,28.63,27.85,17.35,7.14,35.06,7.21,52.63.81,11.73-4.27,20.08-12.48,25.17-23.92A57.16,57.16,0,0,0,217,317.07C217.22,295.28,217.1,273.49,217.1,251.69Z" transform="translate(0 0)"/><path class="cls-2" d="M306,368.28c-15.37-.14-29.66-3-42.71-10.78a67,67,0,0,1-24.91-26c-0.67-1.22-.52-1.73.7-2.43q13.84-7.9,27.59-16c1.28-.75,1.76-0.46,2.47.67,4.21,6.66,9.19,12.65,16.25,16.43a39.32,39.32,0,0,0,33,2.47c5.89-2.11,10.31-6,11.71-12.43a16.63,16.63,0,0,0-4.22-15.82,36.2,36.2,0,0,0-10.27-7.07c-8.35-4.22-17.1-7.58-25.62-11.43-9-4.08-17.65-8.83-25-15.6-10-9.2-15-20.75-16-34.19-0.63-9.37.52-18.44,4.77-27,5.87-11.76,15.25-19.62,27.51-23.9,14.74-5.14,29.73-5.09,44.61-.6,13.83,4.18,23.41,13.62,30.61,25.8,0.53,0.89.3,1.25-.48,1.76q-13.52,8.63-27,17.34c-0.92.59-1.32,0.47-1.86-.48a34.82,34.82,0,0,0-6.27-8.31c-7.09-6.67-15.5-8.26-24.48-5.28-13.2,4.38-12.75,20.13-6.28,26.63a34.86,34.86,0,0,0,8.62,6.15c7.95,4.2,16.39,7.3,24.55,11,9.22,4.22,18.19,8.86,26.13,15.29,11.89,9.64,17.82,22.21,18.53,37.38,0.44,9.3-.68,18.32-4.8,26.8-5.78,11.9-15.37,19.54-27.47,24.31C326.08,366.9,316,368.23,306,368.28Z" transform="translate(0 0)"/><path class="cls-2" d="M217.1,251.69c0,21.79.12,43.59-.06,65.38A57.16,57.16,0,0,1,212,339.89c-5.08,11.44-13.44,19.64-25.17,23.92-17.57,6.4-35.27,6.33-52.63-.81-13.16-5.41-22.32-15.24-28.63-27.85-0.49-1-.28-1.38.59-1.9q14.15-8.5,28.25-17.09c0.93-.57,1.31-0.47,1.84.48a62.37,62.37,0,0,0,7,10.57,20.34,20.34,0,0,0,15.94,7.53,31.87,31.87,0,0,0,7.55-.68q10.43-2.48,12.34-14.43a61.66,61.66,0,0,0,.71-9.84q0-62,0-123.92c0-1.8.39-2.3,2.25-2.28q16.44,0.15,32.88,0c1.84,0,2.42.33,2.41,2.33-0.08,21.92-.05,43.84-0.05,65.76H217.1Z" transform="translate(0 0)"/></g></svg>