<svg id="Layer_1" data-name="Layer 1" xmlns="http://www.w3.org/2000/svg" xmlns:xlink="http://www.w3.org/1999/xlink" viewBox="0 0 600 450"><defs><style>.cls-1{fill:none;}.cls-2{clip-path:url(#clip-path);}.cls-3{fill:#77b944;}.cls-4{fill:#fcfdfa;}</style><clipPath id="clip-path" transform="translate(100 25)"><rect class="cls-1" width="400" height="400"/></clipPath></defs><title>node</title><g class="cls-2"><g id="GVJSJX.tif"><path class="cls-3" d="M-100,425V-25H500V425H-100ZM326.48,201.93q0-28.25,0-56.49c0-2.16-.07-4.33-0.23-6.49-0.54-7.33-4.12-12.9-10.18-16.87-3.06-2-6.29-3.73-9.46-5.56Q259.29,89.17,212,61.8c-8.35-4.85-16.68-5.46-25.08-.63Q135,91,83.21,121.07c-8.1,4.68-12,11.78-12,21q-0.06,59.49,0,119c0,9.42,3.95,16.63,12.28,21.35s16.66,9.74,25.08,14.44c9.32,5.2,19.12,8.23,30.06,7.24,12.73-1.15,22.16-8.67,25.45-21.08a57.64,57.64,0,0,0,1.51-14.87q0-56.24,0-112.49c0-1.17.07-2.34,0-3.5-0.29-3-1.13-3.92-4-4-3.83-.15-7.67-0.15-11.5,0-2.91.11-3.82,1.12-4,3.95-0.09,1.16,0,2.33,0,3.5q0,44.49,0,89c0,8.67.1,17.33,0,26-0.15,10-8.09,16.12-18,14a30.34,30.34,0,0,1-8.79-3.42c-8.35-4.84-16.66-9.75-25.1-14.4-3-1.68-4.05-3.81-4-7.22q0.15-57.74,0-115.48c0-3.66,1.22-5.77,4.34-7.56q50.21-28.81,100.27-57.86c2.94-1.71,5.28-1.82,8.27-.08q50.07,29,100.3,57.82c3.17,1.82,4.3,4.06,4.29,7.63q-0.14,57.74,0,115.48c0,3.59-1.15,5.77-4.31,7.58q-50,28.66-99.84,57.61c-3.33,1.93-5.95,1.91-9.17-.12-7.17-4.53-14.61-8.64-21.81-13.11-2.6-1.62-4.8-1.74-7.37-.08a60.61,60.61,0,0,1-12.24,5.54c-1.2.44-2.84,0.51-2.86,2.24,0,1.33,1.32,1.8,2.25,2.46,0.41,0.29.85,0.51,1.28,0.77q16.53,9.8,33.06,19.58a25.45,25.45,0,0,0,7.81,3.18c6.41,1.32,12.1-.35,17.63-3.56,20-11.62,40-23.12,60.07-34.67,14-8.06,27.92-16.18,41.92-24.2,5.58-3.2,9.7-7.54,11.54-13.79a34.55,34.55,0,0,0,1-9.9Q326.48,230.43,326.48,201.93ZM227.77,145c-1.62,0-3.62-.09-5.61,0-8.87.47-17.52,2-25.52,6.08-9.66,4.93-15.91,12.57-17.18,23.55-1.62,14,3.46,24.37,16.21,30A67.87,67.87,0,0,0,210,209c10,2,20.15,2.41,30.17,4,5.59,0.9,11.17,1.83,16.38,4.16s6.94,5.38,6.42,11.08c-0.66,7.19-5.27,11-11.66,12.67-12.78,3.34-25.73,3-38.61.58-9.48-1.78-15.48-7.27-16.86-17.16-0.07-.49-0.29-1-0.39-1.44a3.5,3.5,0,0,0-3.91-3c-4,.06-8-0.09-12,0-3.09.1-3.76,0.82-3.73,4a38.32,38.32,0,0,0,.68,7.44c2.74,13.14,11.22,21.2,23.44,25.62,12.73,4.61,26,5.45,39.37,4.51,8.85-.62,17.48-2.16,25.55-6.1,13.61-6.65,20.24-18.05,19.09-33.13-0.74-9.7-5.18-17-14.07-21.44a58.1,58.1,0,0,0-9.74-3.77c-11.07-3.2-22.53-4.23-33.86-6-6.57-1-13.19-1.88-19.48-4.14-5.85-2.11-7.75-6.22-6.12-12.23s6.31-8.35,11.67-9.59c9.53-2.2,19.18-1.92,28.79-.57s16.08,6.67,18.48,16.38c0.08,0.32.24,0.63,0.3,1,0.44,2.38,1.93,3.28,4.27,3.24,3.83-.07,7.66.07,11.49,0,3.42-.1,4.45-1.32,4.06-4.7-1.81-15.43-9.42-26.35-24.52-31.45A79.5,79.5,0,0,0,227.77,145Z" transform="translate(100 25)"/><path class="cls-4" d="M326.48,201.93q0,28.5,0,57a34.55,34.55,0,0,1-1,9.9c-1.85,6.25-6,10.6-11.54,13.79-14,8-27.94,16.14-41.92,24.2-20,11.56-40.08,23.05-60.07,34.67-5.53,3.21-11.22,4.89-17.63,3.56a25.45,25.45,0,0,1-7.81-3.18q-16.55-9.76-33.06-19.58c-0.43-.25-0.88-0.48-1.28-0.77-0.93-.66-2.26-1.13-2.25-2.46,0-1.74,1.66-1.81,2.86-2.24A60.61,60.61,0,0,0,165,311.28c2.57-1.66,4.77-1.54,7.37.08,7.21,4.47,14.64,8.58,21.81,13.11,3.23,2,5.85,2.06,9.17.12q49.84-29,99.84-57.61c3.16-1.81,4.32-4,4.31-7.58q-0.15-57.74,0-115.48c0-3.58-1.12-5.82-4.29-7.63Q253,107.51,202.94,78.47c-3-1.73-5.32-1.63-8.27.08Q144.61,107.6,94.4,136.41c-3.13,1.79-4.36,3.91-4.34,7.56q0.18,57.74,0,115.48c0,3.41,1,5.55,4,7.22,8.45,4.66,16.76,9.56,25.1,14.4A30.34,30.34,0,0,0,128,284.5c9.87,2.16,17.8-3.92,18-14,0.13-8.66,0-17.33,0-26q0-44.49,0-89c0-1.17-.07-2.34,0-3.5,0.22-2.82,1.13-3.84,4-3.95,3.83-.14,7.67-0.14,11.5,0,2.87,0.11,3.7,1.07,4,4,0.11,1.16,0,2.33,0,3.5q0,56.24,0,112.49A57.64,57.64,0,0,1,164.07,283c-3.29,12.41-12.72,19.93-25.45,21.08-10.94,1-20.75-2-30.06-7.24-8.42-4.7-16.69-9.68-25.08-14.44S71.2,270.48,71.19,261.06q0-59.49,0-119c0-9.23,3.91-16.33,12-21q51.86-29.95,103.71-59.89c8.4-4.83,16.73-4.22,25.08.63q47.24,27.46,94.61,54.71c3.17,1.83,6.41,3.56,9.46,5.56,6.06,4,9.64,9.54,10.18,16.87,0.16,2.16.22,4.33,0.23,6.49Q326.5,173.68,326.48,201.93Z" transform="translate(100 25)"/><path class="cls-4" d="M227.77,145a79.5,79.5,0,0,1,27.4,3.87c15.1,5.1,22.71,16,24.52,31.45,0.4,3.38-.64,4.61-4.06,4.7-3.83.11-7.66,0-11.49,0-2.34,0-3.83-.86-4.27-3.24-0.06-.32-0.22-0.63-0.3-1-2.4-9.7-8.77-15-18.48-16.38s-19.26-1.62-28.79.57c-5.36,1.24-10,3.58-11.67,9.59s0.27,10.12,6.12,12.23c6.29,2.26,12.9,3.13,19.48,4.14,11.33,1.74,22.79,2.77,33.86,6a58.1,58.1,0,0,1,9.74,3.77c8.89,4.41,13.33,11.73,14.07,21.44,1.15,15.08-5.48,26.49-19.09,33.13-8.07,3.94-16.7,5.48-25.55,6.1-13.4.94-26.63,0.1-39.37-4.51-12.21-4.42-20.7-12.48-23.44-25.62a38.32,38.32,0,0,1-.68-7.44c0-3.19.64-3.9,3.73-4,4-.13,8,0,12,0a3.5,3.5,0,0,1,3.91,3c0.11,0.49.33,1,.39,1.44,1.37,9.89,7.37,15.38,16.86,17.16,12.88,2.42,25.83,2.76,38.61-.58,6.39-1.67,11-5.49,11.66-12.67,0.52-5.69-1.16-8.73-6.42-11.08s-10.8-3.26-16.38-4.16c-10-1.61-20.2-2-30.17-4a67.87,67.87,0,0,1-14.29-4.28c-12.75-5.66-17.83-16-16.21-30,1.27-11,7.52-18.62,17.18-23.55,8-4.08,16.65-5.61,25.52-6.08C224.15,144.92,226.16,145,227.77,145Z" transform="translate(100 25)"/></g></g></svg>