<?xml version="1.0" encoding="utf-8"?>
<!-- Generator: Adobe Illustrator 16.0.0, SVG Export Plug-In . SVG Version: 6.00 Build 0)  -->
<!DOCTYPE svg PUBLIC "-//W3C//DTD SVG 1.1//EN" "http://www.w3.org/Graphics/SVG/1.1/DTD/svg11.dtd">
<svg version="1.1" xmlns="http://www.w3.org/2000/svg" xmlns:xlink="http://www.w3.org/1999/xlink" x="0px" y="0px" width="100px"
	 height="100px" viewBox="0 0 100 100" enable-background="new 0 0 100 100" xml:space="preserve">
<g id="Layer_1" display="none">
	<g display="inline" opacity="0.3">
		<path d="M50.244,59.794c5.436,0,9.862-4.416,9.862-9.858c0-2.143-0.696-4.126-1.86-5.747c-1.793-2.479-4.706-4.105-8.002-4.105
			c-3.282,0-6.199,1.616-7.989,4.105c-1.173,1.62-1.86,3.604-1.871,5.747C40.384,55.379,44.811,59.794,50.244,59.794L50.244,59.794z
			 M50.244,59.794"/>
		<path d="M71.777,37.875v-9.492h-1.24l-8.262,0.03l0.04,9.492L71.777,37.875z M71.777,37.875"/>
		<path d="M50.244,0.689C23.094,0.689,1,22.786,1,49.937C1,77.096,23.094,99.19,50.244,99.19c27.161,0,49.257-22.094,49.257-49.253
			C99.501,22.786,77.404,0.689,50.244,0.689L50.244,0.689z M78.256,44.19v22.937c0,5.969-4.852,10.822-10.828,10.822H33.063
			c-5.969,0-10.822-4.853-10.822-10.822V32.762c0-5.977,4.853-10.83,10.822-10.83h34.365c5.977,0,10.828,4.853,10.828,10.83V44.19z
			 M78.256,44.19"/>
		<path d="M65.569,49.937c0,8.445-6.867,15.321-15.325,15.321c-8.445,0-15.312-6.876-15.312-15.321c0-2.027,0.407-3.973,1.124-5.747
			h-8.359v22.937c0,2.967,2.399,5.359,5.366,5.359h34.365c2.963,0,5.366-2.393,5.366-5.359V44.19h-8.359
			C65.152,45.964,65.569,47.91,65.569,49.937L65.569,49.937z M65.569,49.937"/>
	</g>
</g>
<g id="Layer_2">
	<g opacity="0.3">
		<path d="M50.244,0.689C23.094,0.689,1,22.786,1,49.937C1,77.096,23.094,99.19,50.244,99.19c27.16,0,49.257-22.094,49.257-49.253
			C99.501,22.786,77.404,0.689,50.244,0.689L50.244,0.689z M72.224,38.67c0.017,0.484,0.027,0.977,0.027,1.473
			c0,14.975-11.398,32.243-32.253,32.243c-6.402,0-12.361-1.867-17.378-5.092c0.891,0.106,1.791,0.164,2.704,0.164
			c5.317,0,10.199-1.811,14.082-4.853c-4.959-0.097-9.143-3.37-10.586-7.876c0.688,0.137,1.395,0.203,2.131,0.203
			c1.027,0,2.033-0.133,2.983-0.396c-5.183-1.036-9.097-5.617-9.097-11.109c0-0.049,0-0.097,0.011-0.146
			c1.52,0.853,3.275,1.356,5.135,1.413c-3.042-2.023-5.049-5.5-5.049-9.432c0-2.074,0.563-4.02,1.533-5.697
			c5.586,6.859,13.948,11.372,23.361,11.847c-0.194-0.834-0.29-1.694-0.29-2.586c0-6.257,5.076-11.333,11.334-11.333
			c3.263,0,6.207,1.377,8.27,3.573c2.586-0.502,5.019-1.443,7.209-2.75c-0.854,2.653-2.647,4.873-4.99,6.277
			c2.296-0.271,4.486-0.881,6.509-1.781C76.36,35.078,74.43,37.072,72.224,38.67L72.224,38.67z M72.224,38.67"/>
	</g>
</g>
</svg>
